<?xml version="1.0" encoding="UTF-8" standalone="no"?>
<!-- Uploaded to: SVG Repo, www.svgrepo.com, Generator: SVG Repo Mixer Tools -->

<svg
   fill="#000000"
   height="800px"
   width="800px"
   version="1.1"
   id="Layer_1"
   viewBox="0 0 512.002 512.002"
   xml:space="preserve"
   sodipodi:docname="autodidacta.svg"
   inkscape:version="1.3.2 (091e20e, 2023-11-25)"
   xmlns:inkscape="http://www.inkscape.org/namespaces/inkscape"
   xmlns:sodipodi="http://sodipodi.sourceforge.net/DTD/sodipodi-0.dtd"
   xmlns="http://www.w3.org/2000/svg"
   xmlns:svg="http://www.w3.org/2000/svg"><defs
   id="defs26">
	

		
	</defs><sodipodi:namedview
   id="namedview26"
   pagecolor="#505050"
   bordercolor="#eeeeee"
   borderopacity="1"
   inkscape:showpageshadow="0"
   inkscape:pageopacity="0"
   inkscape:pagecheckerboard="0"
   inkscape:deskcolor="#505050"
   showguides="true"
   inkscape:zoom="0.6069249"
   inkscape:cx="266.09553"
   inkscape:cy="373.1928"
   inkscape:window-width="1280"
   inkscape:window-height="680"
   inkscape:window-x="0"
   inkscape:window-y="25"
   inkscape:window-maximized="0"
   inkscape:current-layer="Layer_1" />
<path
   id="path1"
   d="m 219.6252,232.65383 c -1.86048,-2.08365 -6.04256,-1.61541 -7.04005,0.80339 l -4.53752,11.00598 -26.25489,-6.41112 c -4.95221,-1.21001 -10.24225,0.90074 -11.81454,4.71192 l -15.1032,36.63568 c 16.94287,1.52669 31.25353,11.44834 34.27321,25.02222 0.0176,0.0789 0.0272,0.15773 0.0448,0.23412 1.08234,5.10253 0.44831,10.1188 -1.5883,14.69641 l 13.05059,3.18647 c 3.17659,0.77628 6.57093,-0.57791 7.57802,-3.02258 l 28.09616,-68.14665 z"
   style="stroke-width:1.40459" />
<g
   id="g4"
   transform="translate(0,38.40015)">
	<g
   id="g3">
		<path
   d="m 100.201,139.067 c -0.002,0 -0.004,0 -0.006,-0.001 -17.89,-2.73 -34.669,9.546 -37.418,27.507 -3.032,19.846 12.303,37.797 32.497,37.805 16.014,0 29.962,-11.716 32.433,-27.887 2.743,-17.952 -9.596,-34.689 -27.506,-37.424 z"
   id="path2" />
	</g>
</g>
<g
   id="g6"
   transform="translate(0,38.40015)">
	<g
   id="g5">
		<path
   d="m 274.801,251.729 c -1.975,0 -3.577,1.602 -3.577,3.577 v 17.111 c 0,1.975 1.602,3.577 3.577,3.577 h 7.389 V 251.73 h -7.389 z"
   id="path4" />
	</g>
</g>
<g
   id="g8"
   transform="translate(0,38.40015)">
	<g
   id="g7">
		<path
   d="m 349.618,255.978 c -5.024,-0.15 -9.846,-1.656 -14.003,-4.249 h -42.926 v 24.264 h 56.929 z"
   id="path6" />
	</g>
</g>
<g
   id="g10"
   transform="translate(0,38.40015)">
	<g
   id="g9">
		<path
   d="m 323.383,235.234 c -1.707,-6.339 -1.09,-12.752 1.316,-18.349 h -40.876 v 0.001 24.264 h 41.903 c -0.979,-1.84 -1.776,-3.816 -2.343,-5.916 z"
   id="path8" />
	</g>
</g>
<g
   id="g12"
   transform="translate(0,38.40015)">
	<g
   id="g11">
		<path
   d="m 264.846,216.886 c -1.975,0 -3.577,1.602 -3.577,3.577 v 17.111 c 0,1.975 1.602,3.577 3.577,3.577 h 9.488 v -24.264 h -9.488 z"
   id="path10" />
	</g>
</g>
<g
   id="g14"
   transform="translate(0,38.40015)">
	<g
   id="g13">
		<path
   d="m 277.911,180.801 c -1.975,-10e-4 -3.577,1.6 -3.577,3.577 v 17.111 c 0,1.975 1.602,3.577 3.577,3.577 h 56.324 c 0.006,-0.004 0.011,-0.008 0.017,-0.012 v -24.252 h -56.341 z"
   id="path12" />
	</g>
</g>
<g
   id="g16"
   transform="translate(0,38.40015)">
	<g
   id="g15">
		<path
   d="m 352.729,184.378 c 0,-1.975 -1.602,-3.577 -3.577,-3.577 h -5.022 v 19.807 l 8.6,-2.314 v -13.916 z"
   id="path14" />
	</g>
</g>
<g
   id="g18"
   transform="translate(0,38.40015)">
	<g
   id="g17">
		<path
   d="m 264.846,153.736 c -1.975,0 -3.577,1.602 -3.577,3.577 v 11.51 c 0,1.976 1.602,3.578 3.577,3.578 h 11.744 v -18.665 z"
   id="path16" />
	</g>
</g>
<g
   id="g20"
   transform="translate(0,38.40015)">
	<g
   id="g19">
		<path
   d="m 336.086,153.737 h -52.262 v 18.665 h 52.262 c 1.975,-10e-4 3.577,-1.603 3.577,-3.578 v -11.51 c 0,-1.976 -1.602,-3.577 -3.577,-3.577 z"
   id="path18" />
	</g>
</g>
<g
   id="g22"
   transform="translate(0,38.40015)">
	<g
   id="g21">
		<circle
   cx="416.95499"
   cy="96.126999"
   r="31.072001"
   id="circle20" />
	</g>
</g>
<g
   id="g24"
   transform="translate(0,38.40015)">
	<g
   id="g23">
		<path
   d="M 511.546,424.807 491.061,334.769 480.385,274.752 471.7,158.399 c -1.029,-12.517 -12.01,-21.829 -24.526,-20.801 l -40.416,3.322 c -12.517,1.029 -21.829,12.01 -20.801,24.526 l 1.922,23.381 7.298,-1.964 18.052,-18.129 -16.241,31.045 -50.448,13.581 c -8.053,2.168 -12.826,10.453 -10.657,18.506 2.17,8.062 10.464,12.822 18.506,10.657 l 56.839,-15.3 c 4.072,-1.096 7.499,-3.845 9.455,-7.582 l 19.307,-36.906 -7.837,42.906 c -1.133,6.199 -5.735,10.891 -11.437,12.436 -7.918,2.126 -2.276,0.609 -28.164,7.578 l 2.965,36.07 0.217,-0.018 -18.471,50.359 c -1.173,3.197 -1.421,6.661 -0.715,9.994 l 19.138,90.366 c 2.073,9.788 11.687,16.047 21.481,13.974 9.791,-2.074 16.046,-11.692 13.973,-21.482 l -18.058,-85.268 22.453,-61.216 8.573,-0.705 c 0.122,0.684 11.368,63.979 11.522,64.653 l 20.58,90.459 c 2.222,9.761 11.934,15.87 21.689,13.649 9.757,-2.214 15.868,-11.925 13.647,-21.683 z"
   id="path22" />
	</g>
</g>
<g
   id="g26"
   transform="translate(0,38.40015)">
	<g
   id="g25">
		<path
   d="m 362.837,285.26 c -9.847,0 -195.847,0 -201.53,0 -0.008,0 -0.015,0.001 -0.022,0.001 4.091,-3.272 6.33,-8.609 5.382,-14.137 -1.387,-8.099 -9.078,-13.542 -17.178,-12.154 l -43.138,7.388 -14.388,-24.984 14.504,15.068 5.371,-0.92 0.227,-14.445 c 0.218,-13.841 -10.899,-25.21 -24.736,-25.309 0,0 -21.665,-0.156 -22.92,-0.165 -13.855,-0.1 -25.134,11.137 -25.095,24.985 l 0.213,77.621 -15.122,-76.928 c -1.313,-6.675 -7.78,-11.024 -14.462,-9.71 -6.675,1.312 -11.021,7.786 -9.71,14.461 l 23.189,117.969 c 1.109,5.642 5.968,9.736 11.678,9.924 L 11.424,435.32 c -1.631,4.23 0.477,8.983 4.707,10.615 4.235,1.633 8.986,-0.478 10.616,-4.707 l 11.485,-29.78 h 55.649 l 5.777,-16.423 h -55.09 l 8.131,-21.083 h 54.379 l 8.131,-23.137 11.56,-0.034 -25.376,72.129 c -3.272,9.302 1.616,19.497 10.917,22.769 9.317,3.276 19.501,-1.628 22.77,-10.917 l 21.964,-62.431 V 315.72 c -1.618,-0.477 -3.313,-0.732 -5.04,-0.732 -0.017,0 -0.035,0 -0.051,0 l -41.006,0.12 0.106,-9.466 c -11.045,1.891 -6.488,1.111 -13.316,2.281 -9.16,1.569 -17.914,-4.135 -20.445,-12.854 L 66.18,256.228 85.745,290.202 c 2.686,4.664 7.635,7.455 12.891,7.455 1.806,0 -2.166,0.588 54.69,-9.15 -2.147,2.084 -3.485,4.996 -3.485,8.225 0,6.434 5.253,11.47 11.47,11.47 h 5.578 v 126.41 c 0,5.838 4.236,12.082 13.119,12.082 6.674,0 12.082,-5.41 12.082,-12.082 V 308.201 c 5.29,0 135.269,0 140.712,0 v 125.892 c 0,6.959 5.642,12.601 12.601,12.601 6.959,0 12.601,-5.642 12.601,-12.601 V 308.201 h 4.837 c 6.334,0 11.47,-5.136 11.47,-11.47 -10e-4,-6.335 -5.139,-11.471 -11.474,-11.471 z m -317.196,64.052 -2.13,-10.833 c 3.692,5.754 9.255,9.43 15.476,10.833 z"
   id="path24" />
	</g>
</g>
<path
   style="font-size:133.255px;line-height:1.3;font-family:'Noto Serif Balinese';-inkscape-font-specification:'Noto Serif Balinese';fill:#1a1a1a;stroke:#1a1a1a;stroke-width:7.7855;stroke-dasharray:none"
   d="M 168.19276,99.461839 H 119.87615 V 27.973061 h 48.31661 v 8.449984 h -38.56464 v 19.588599 h 38.56464 v 8.449982 h -38.56464 v 26.550232 h 38.56464 z"
   id="text26"
   aria-label="ME"
   sodipodi:nodetypes="ccccccccccccc" /><path
   d="m 199.37004,283.56326 q -0.86442,0.12693 -1.57752,0.2507 -0.69923,0.12781 -1.7948,0.17108 -0.9261,0.0296 -1.97886,-0.0731 -1.04319,-0.084 -2.23418,-0.43329 -2.24351,-0.65795 -3.89277,-1.85494 -1.63115,-1.20752 -2.57311,-3.02133 -0.92283,-1.77651 -1.04571,-4.12684 -0.1186,-2.36491 0.71182,-5.19653 0.78763,-2.68566 2.12844,-4.59085 1.34081,-1.90522 3.12605,-2.96681 1.73084,-1.02998 3.80489,-1.23013 2.0879,-0.19609 4.3591,0.46995 1.66185,0.48737 3.18572,1.39397 1.53772,0.91064 3.24717,2.56911 l -1.00593,3.43005 -0.20772,-0.061 q -1.26251,-2.00292 -2.73704,-3.18035 -1.47451,-1.17746 -3.38564,-1.73793 -1.56492,-0.45894 -2.98353,-0.28848 -1.40049,0.15991 -2.71336,0.99546 -1.27661,0.81444 -2.30897,2.33458 -1.01424,1.5096 -1.65632,3.69899 -0.67204,2.29156 -0.57409,4.11148 0.11179,1.82398 0.73575,3.1324 0.65265,1.36442 1.78649,2.26756 1.15197,0.89262 2.59225,1.31499 1.98037,0.5808 3.92122,0.37328 1.94084,-0.20751 3.86986,-1.19523 l 0.19387,0.0569 z"
   id="text3"
   style="font-size:23.8934px;line-height:1.3;font-family:'Noto Serif Balinese';-inkscape-font-specification:'Noto Serif Balinese';fill:#ffffff;stroke:#ffffff;stroke-width:6.50221"
   aria-label="C" /><path
   d="m 32.996147,100.60223 h 9.75198 V 39.003779 l 20.39048,41.913838 h 5.81179 l 20.24276,-41.913838 v 61.098381 45.92455 h -15.09665 l 18.98549,9.76069 21.387963,-9.76069 H 97.885487 l 0.41935,-46.136093 V 29.113456 H 85.006687 L 65.453487,68.9148 46.540557,29.113456 h -13.54441 z"
   style="font-size:133.255px;line-height:1.3;font-family:'Noto Serif Balinese';-inkscape-font-specification:'Noto Serif Balinese';fill:#1a1a1a;stroke:#1a1a1a;stroke-width:7.7855;stroke-dasharray:none"
   id="path1-7" /></svg>
