<?xml version="1.0" encoding="UTF-8" standalone="no"?>
<!-- Created with Inkscape (http://www.inkscape.org/) -->

<svg
   version="1.1"
   id="svg1"
   width="303"
   height="64"
   viewBox="0 0 303 64"
   sodipodi:docname="firma.png"
   xmlns:inkscape="http://www.inkscape.org/namespaces/inkscape"
   xmlns:sodipodi="http://sodipodi.sourceforge.net/DTD/sodipodi-0.dtd"
   xmlns:xlink="http://www.w3.org/1999/xlink"
   xmlns="http://www.w3.org/2000/svg"
   xmlns:svg="http://www.w3.org/2000/svg">
  <defs
     id="defs1">
    <inkscape:path-effect
       effect="powerstroke"
       id="path-effect14"
       is_visible="true"
       lpeversion="1.3"
       scale_width="1"
       interpolator_type="CentripetalCatmullRom"
       interpolator_beta="0.75"
       start_linecap_type="round"
       end_linecap_type="round"
       offset_points="18.573783,2.2246696"
       linejoin_type="spiro"
       miter_limit="4"
       not_jump="true"
       sort_points="true"
       message="&lt;b&gt;Ctrl + click&lt;/b&gt; on existing node and move it" />
    <inkscape:path-effect
       effect="simplify"
       id="path-effect13"
       is_visible="true"
       lpeversion="1.3"
       threshold="0.012"
       steps="1"
       smooth_angles="0"
       helper_size="0"
       simplify_individual_paths="false"
       simplify_just_coalesce="false"
       step="1" />
    <inkscape:path-effect
       effect="powerstroke"
       id="path-effect12"
       is_visible="true"
       lpeversion="1.3"
       scale_width="1"
       interpolator_type="CentripetalCatmullRom"
       interpolator_beta="0.75"
       start_linecap_type="round"
       end_linecap_type="round"
       offset_points="18.893326,2.2246696"
       linejoin_type="spiro"
       miter_limit="4"
       not_jump="true"
       sort_points="true"
       message="&lt;b&gt;Ctrl + click&lt;/b&gt; on existing node and move it" />
    <inkscape:path-effect
       effect="simplify"
       id="path-effect11"
       is_visible="true"
       lpeversion="1.3"
       threshold="0.012"
       steps="1"
       smooth_angles="0"
       helper_size="0"
       simplify_individual_paths="false"
       simplify_just_coalesce="false"
       step="1" />
    <inkscape:path-effect
       effect="powerstroke"
       id="path-effect10"
       is_visible="true"
       lpeversion="1.3"
       scale_width="1"
       interpolator_type="CentripetalCatmullRom"
       interpolator_beta="0.75"
       start_linecap_type="round"
       end_linecap_type="round"
       offset_points="13.20831,2.2246696"
       linejoin_type="spiro"
       miter_limit="4"
       not_jump="true"
       sort_points="true"
       message="&lt;b&gt;Ctrl + click&lt;/b&gt; on existing node and move it" />
    <inkscape:path-effect
       effect="simplify"
       id="path-effect9"
       is_visible="true"
       lpeversion="1.3"
       threshold="0.012"
       steps="1"
       smooth_angles="0"
       helper_size="0"
       simplify_individual_paths="false"
       simplify_just_coalesce="false"
       step="1" />
    <inkscape:path-effect
       effect="powerstroke"
       id="path-effect8"
       is_visible="true"
       lpeversion="1.3"
       scale_width="1"
       interpolator_type="CentripetalCatmullRom"
       interpolator_beta="0.75"
       start_linecap_type="round"
       end_linecap_type="round"
       offset_points="26.430156,6.6740088"
       linejoin_type="spiro"
       miter_limit="4"
       not_jump="true"
       sort_points="true"
       message="&lt;b&gt;Ctrl + click&lt;/b&gt; on existing node and move it" />
    <inkscape:path-effect
       effect="simplify"
       id="path-effect7"
       is_visible="true"
       lpeversion="1.3"
       threshold="0.000149254"
       steps="1"
       smooth_angles="0"
       helper_size="0"
       simplify_individual_paths="false"
       simplify_just_coalesce="false"
       step="1" />
    <inkscape:path-effect
       effect="powerstroke"
       id="path-effect6"
       is_visible="true"
       lpeversion="1.3"
       scale_width="1"
       interpolator_type="CentripetalCatmullRom"
       interpolator_beta="0.75"
       start_linecap_type="round"
       end_linecap_type="round"
       offset_points="26.134482,6.6740088"
       linejoin_type="spiro"
       miter_limit="4"
       not_jump="true"
       sort_points="true"
       message="&lt;b&gt;Ctrl + click&lt;/b&gt; on existing node and move it" />
    <inkscape:path-effect
       effect="simplify"
       id="path-effect5"
       is_visible="true"
       lpeversion="1.3"
       threshold="0.012"
       steps="1"
       smooth_angles="0"
       helper_size="0"
       simplify_individual_paths="false"
       simplify_just_coalesce="false"
       step="1" />
    <inkscape:path-effect
       effect="powerstroke"
       id="path-effect4"
       is_visible="true"
       lpeversion="1.3"
       scale_width="1"
       interpolator_type="CentripetalCatmullRom"
       interpolator_beta="0.75"
       start_linecap_type="round"
       end_linecap_type="round"
       offset_points="16.339676,6.6740088"
       linejoin_type="spiro"
       miter_limit="4"
       not_jump="true"
       sort_points="true"
       message="&lt;b&gt;Ctrl + click&lt;/b&gt; on existing node and move it" />
    <inkscape:path-effect
       effect="simplify"
       id="path-effect3"
       is_visible="true"
       lpeversion="1.3"
       threshold="0.012"
       steps="1"
       smooth_angles="0"
       helper_size="0"
       simplify_individual_paths="false"
       simplify_just_coalesce="false"
       step="1" />
  </defs>
  <sodipodi:namedview
     id="namedview1"
     pagecolor="#505050"
     bordercolor="#eeeeee"
     borderopacity="1"
     inkscape:showpageshadow="0"
     inkscape:pageopacity="0"
     inkscape:pagecheckerboard="0"
     inkscape:deskcolor="#505050" />
  <g
     inkscape:groupmode="layer"
     inkscape:label="Image"
     id="g1">
    <image
       width="303"
       height="64"
       preserveAspectRatio="none"
       xlink:href="file:///Volumes/HDMac/Users/fernandodager/public_html/mi_nuevo_repo/img/firma.png"
       id="image1" />
    <path
       style="fill:none;stroke:#ff0000;stroke-width:1px;stroke-linecap:butt;stroke-linejoin:miter;stroke-opacity:1"
       d="m 134.21126,35.497567 c -27.5859,25.361234 -28.9207,24.9163 -28.9207,24.9163 v 0 c 25.32642,-35.263282 28.03708,-47.9108 0,-29.810573 C 127.40971,-34.12512 82.551795,36.775016 61.625341,59.21395 108.2279,-11.300848 52.620146,13.093934 2.5108255,32.38303"
       id="path1"
       sodipodi:nodetypes="cccccc" />
    <path
       style="fill:none;stroke:#ff0000;stroke-width:1px;stroke-linecap:butt;stroke-linejoin:miter;stroke-opacity:1"
       d="m 196.21576,20.197243 c -9.93067,43.200444 -31.09623,50.419568 -18.63856,19.292901 8.36417,-20.898645 -4.62925,-18.476118 -7.48474,-4.308828 -6.71531,33.317445 -10.34261,6.001467 -10.40066,-5.842052 -0.10759,-21.9515277 -12.41495,-17.666481 -29.06957,-11.57853"
       id="path2"
       sodipodi:nodetypes="csssc" />
    <path
       d="m 4.4426549,33.819971 c 0.1607304,-0.119608 0.3684258,-0.241658 0.6306047,-0.346965 0.2696591,-0.108498 0.5948592,-0.200635 0.9973876,-0.269073 0.4160364,-0.07058 0.8771385,-0.110783 1.4211349,-0.127611 0.6771875,-0.02054 1.3500509,-0.0025 2.1797154,0.02078 0.6236595,0.01743 1.3813895,0.04055 2.1310315,0.02592 0.554623,-0.01125 1.186716,-0.04345 1.844656,-0.138668 0.526361,-0.07655 1.119702,-0.200593 1.726949,-0.419352 0.301395,-0.107575 0.594034,-0.238116 0.872323,-0.382081 0.543208,-0.276045 1.068348,-0.567763 1.587489,-0.863808 0.735221,-0.419951 1.430976,-0.83345 2.158606,-1.257475 0.938186,-0.546925 1.881927,-1.085684 2.836939,-1.573295 0.638951,-0.32589 1.283433,-0.629522 1.935684,-0.890552 0.505084,-0.201793 1.006707,-0.374777 1.505925,-0.504256 0.553836,-0.139402 1.10778,-0.275589 1.687226,-0.417697 1.606692,-0.393652 2.689117,-0.650918 4.296301,-1.04469 1.84875,-0.454668 3.780194,-0.947026 5.701206,-1.525105 1.227581,-0.369085 2.470446,-0.779559 3.714742,-1.24082 1.322033,-0.489546 2.64017,-1.034329 3.951626,-1.632953 0.634893,-0.289586 1.269435,-0.592395 1.904683,-0.90743 0.0727,-0.03605 0.145571,-0.07235 0.218624,-0.108888 0.367421,-0.180721 0.78703,-0.336734 1.27068,-0.47236 0.52473,-0.147024 1.089834,-0.261561 1.727978,-0.365165 1.285324,-0.208086 2.458218,-0.32093 3.744518,-0.529175 0.711663,-0.116788 1.492046,-0.269174 2.284829,-0.49638 0.659163,-0.189016 1.359038,-0.43941 2.052824,-0.785405 0.04335,-0.02136 0.118941,-0.05206 0.309067,-0.116943 0.255964,-0.08562 0.530348,-0.164638 0.842477,-0.248128 0.521863,-0.138806 1.063842,-0.265208 1.634096,-0.387732 0.853265,-0.182686 1.726649,-0.346046 2.621319,-0.492726 0.986482,-0.161235 1.987567,-0.300156 2.997437,-0.406565 0.745779,-0.07815 1.493039,-0.138468 2.237446,-0.168123 0.519382,-0.02027 1.027033,-0.02553 1.522634,-0.0046 0.344993,0.015 0.661347,0.04143 0.954971,0.08729 0.223114,0.03543 0.377121,0.07293 0.488644,0.112363 0.08029,0.03016 0.03648,0.03486 -0.09411,-0.08041 -0.01089,-0.0096 -0.02169,-0.01934 -0.03239,-0.02916 -0.02304,-0.02116 -0.01524,-0.01891 0.03463,0.04651 0.113839,0.154701 0.23275,0.372535 0.371981,0.701963 0.162956,0.389328 0.303779,0.825491 0.436576,1.31585 0.160166,0.594717 0.292513,1.217622 0.409488,1.872589 0.156266,0.878716 0.277605,1.779677 0.376811,2.706479 0.128245,1.203829 0.215706,2.425942 0.272523,3.668225 0.06483,1.429371 0.08815,2.871831 0.0707,4.324973 -0.01529,1.234307 -0.05975,2.472561 -0.143076,3.709539 -0.06098,0.897859 -0.141534,1.789495 -0.25494,2.671025 -0.07559,0.583429 -0.163386,1.149403 -0.27594,1.698229 -0.08527,0.411299 -0.174028,0.770501 -0.283917,1.094228 -0.04964,0.145563 -0.09484,0.252163 -0.135959,0.331368 -0.0039,0.0075 -0.0077,0.01497 -0.01151,0.02249 -0.262345,0.519742 -0.559609,1.033213 -0.887758,1.54145 -0.358851,0.556474 -0.754449,1.10721 -1.183501,1.678441 -0.508473,0.677054 -1.05689,1.374995 -1.609839,2.121967 -0.359262,0.484882 -0.719649,0.99016 -1.068475,1.514981 -0.720902,1.080072 -1.485842,2.176325 -2.250612,3.314242 -0.739572,1.100141 -1.486515,2.250358 -2.181536,3.45156 -0.354268,0.612279 -0.698183,1.243184 -1.023019,1.89286 -0.02929,0.05857 -0.05597,0.118415 -0.07998,0.179344 -0.04069,0.103256 -0.05968,0.160916 -0.06282,0.16949 -0.0017,0.0046 -0.0034,0.0093 -0.005,0.01396 -0.138258,0.386208 -0.275084,0.764983 -0.415258,1.13863 -0.121766,0.324277 -0.240573,0.63306 -0.364092,0.93172 -0.06427,0.154588 -0.117848,0.278596 -0.170466,0.388108 -0.0325,0.06646 -0.02863,0.05431 -0.0092,0.02316 0.01022,-0.01639 0.02066,-0.03265 0.03131,-0.04876 -0.0278,0.04208 -0.01539,0.01744 0.0498,-0.06824 0.06025,-0.07919 0.191228,-0.239251 0.402544,-0.395688 0.144089,-0.106616 0.300955,-0.195271 0.467334,-0.263804 0.172265,-0.07096 0.386566,-0.133352 0.636113,-0.155995 0.250286,-0.02271 0.567682,-0.0077 0.910109,0.109254 0.354896,0.12123 0.68511,0.33548 0.9471,0.635133 l -0.08352,-0.09036 c 0.165605,0.169507 0.272453,0.333918 0.337139,0.447844 0.06095,0.10735 0.09853,0.196058 0.104412,0.209737 0.0097,0.02254 3.42e-4,-0.0029 -0.03449,-0.07694 -0.03169,-0.06741 -0.09935,-0.204011 -0.211019,-0.3596 l 0.198929,0.335909 c 0.03411,0.0712 0.02991,0.09194 0.02646,0.06147 -0.0054,-0.04779 -0.0077,-0.137292 0.0099,-0.285348 0.0221,-0.183636 0.06787,-0.396164 0.140767,-0.647005 0.09484,-0.324791 0.221444,-0.664225 0.376271,-1.025751 0.203814,-0.474678 0.442162,-0.952727 0.708379,-1.440626 0.318207,-0.582249 0.666349,-1.159583 1.038842,-1.734394 0.281326,-0.433504 0.571773,-0.858749 0.872625,-1.272629 0.150939,-0.207595 0.31002,-0.416888 0.483785,-0.643829 0.920037,-1.198457 1.906444,-2.364932 2.940197,-3.51396 1.282163,-1.424969 2.626479,-2.810258 4.011316,-4.196683 0.203792,-0.201811 0.410443,-0.416258 0.614174,-0.644123 0.507075,-0.565483 0.95971,-1.155247 1.37133,-1.732088 0.539011,-0.756127 1.03355,-1.527438 1.49729,-2.253783 0.461709,-0.723103 0.888288,-1.397108 1.339812,-2.049869 0.332597,-0.480245 0.660867,-0.922879 1.004483,-1.327304 0.164348,-0.193278 0.329167,-0.373797 0.496048,-0.540696 0.442725,-0.443052 0.811593,-0.915011 1.124719,-1.371521 0.369449,-0.53949 0.682435,-1.087853 0.957737,-1.61441 0.35593,-0.681984 0.668555,-1.366254 0.956654,-2.017556 0.413036,-0.934272 0.789502,-1.835259 1.183295,-2.679001 0.248095,-0.530752 0.495483,-1.024457 0.762798,-1.485579 0.183013,-0.315257 0.367693,-0.60136 0.560909,-0.859116 1.623399,-2.164375 3.263507,-4.301124 4.959281,-6.383118 1.380879,-1.695032 2.795919,-3.350561 4.266817,-4.945164 0.700793,-0.759578 1.413894,-1.504924 2.14178,-2.232463 0.09178,-0.08991 0.194568,-0.183224 0.333188,-0.307716 0.314594,-0.281035 0.644414,-0.563578 0.987554,-0.853124 0.68068,-0.57338 1.37492,-1.1379691 2.07961,-1.6950142 0.83674,-0.6608376 1.68097,-1.3048792 2.53682,-1.9255644 0.65436,-0.474029 1.30735,-0.9289879 1.96761,-1.3569613 0.45734,-0.2958827 0.90381,-0.5700663 1.35045,-0.8167015 0.2989,-0.1644911 0.57245,-0.3030786 0.83513,-0.4152775 0.20467,-0.086567 0.32939,-0.1268694 0.41409,-0.1454361 l -0.018,0.00388 c 0.0369,-0.00777 0.0251,-0.00338 -0.0149,-3.001e-4 -0.0424,0.00326 -0.1347,0.00669 -0.25877,-0.013846 -0.11669,-0.019609 -0.25507,-0.055815 -0.4073,-0.1261838 -0.15373,-0.071058 -0.33516,-0.1835484 -0.50769,-0.3577887 l 0.009,0.00875 c 0.20236,0.2021047 0.3844,0.4426359 0.53773,0.7135513 0.17556,0.3096405 0.31909,0.6643453 0.43001,1.0600251 0.1294,0.4618354 0.21138,0.9629911 0.25464,1.5010592 0.0498,0.6238398 0.0459,1.2725595 0.002,1.9457768 -0.0535,0.8157087 -0.16413,1.6440508 -0.31495,2.4869308 -0.1881,1.048272 -0.43532,2.099483 -0.72204,3.1586 -0.36143,1.334394 -0.78318,2.665217 -1.2362,4.01039 -0.21872,0.650577 -0.44684,1.308547 -0.67471,1.978414 -0.13115,0.384797 -0.21976,0.662201 -0.33136,0.964612 -0.27714,0.758897 -0.59657,1.508668 -0.94706,2.267536 -0.42925,0.929107 -0.89807,1.852262 -1.38923,2.796977 -0.24717,0.476175 -0.51478,0.984804 -0.77033,1.48674 -0.15234,0.300159 -0.31711,0.629095 -0.47376,0.973476 -0.0858,0.189785 -0.18974,0.427184 -0.28271,0.691294 -0.002,0.005 -0.003,0.0099 -0.005,0.01489 -0.0421,0.122448 -0.14315,0.414809 -0.18892,0.768806 -0.002,0.01616 -0.004,0.03234 -0.006,0.04855 -0.006,0.05254 -0.0261,0.237276 -0.0125,0.462696 0.007,0.120284 0.0248,0.268757 0.0649,0.434625 0.0406,0.167676 0.10443,0.35354 0.20374,0.544808 l -0.007,-0.01286 c 0.22622,0.442702 0.56188,0.753277 0.89711,0.949986 0.33095,0.1942 0.69214,0.297356 1.04688,0.31929 0.0227,0.0014 0.0453,0.0025 0.068,0.0032 0.16453,0.0051 0.31542,-0.002 0.374,-0.0044 0.006,-2.52e-4 0.0122,-5.3e-4 0.0183,-8.32e-4 0.26888,-0.01332 0.62015,-0.04875 1.00197,-0.156126 0.29693,-0.0832 0.60053,-0.208462 0.89235,-0.384148 0.30559,-0.182645 0.54501,-0.390962 0.70748,-0.544449 0.15021,-0.142059 0.31888,-0.318966 0.37977,-0.380891 0.0101,-0.01034 0.0172,-0.01749 0.0232,-0.02361 0.0188,-0.01617 0.10255,-0.07137 0.30016,-0.18638 0.25751,-0.147679 0.53419,-0.290407 0.84084,-0.441924 0.50706,-0.249658 1.03183,-0.48928 1.57338,-0.728161 0.86418,-0.380445 1.74217,-0.74468 2.63022,-1.100113 1.09865,-0.439147 2.20309,-0.860404 3.31211,-1.262764 0.81411,-0.294936 1.62276,-0.577197 2.43105,-0.840473 0.49945,-0.162217 0.98342,-0.312844 1.46231,-0.446179 0.27128,-0.075 0.50949,-0.136461 0.73455,-0.18322 0.1683,-0.03285 0.22419,-0.03378 0.16486,-0.03241 -0.023,5.3e-4 -0.046,7.03e-4 -0.069,5.2e-4 0.0324,2.58e-4 -0.012,0.0041 -0.13683,-0.0097 -0.12509,-0.01382 -0.34186,-0.049 -0.60229,-0.169335 -0.0111,-0.0051 -0.0222,-0.01039 -0.0333,-0.01572 -0.16578,-0.07995 -0.2991,-0.170574 -0.40129,-0.251915 -0.10041,-0.07993 -0.17423,-0.153734 -0.21998,-0.202402 -0.095,-0.101037 -0.10644,-0.120758 -0.0455,-0.04922 l -0.0745,-0.09236 c -0.0927,-0.121433 -0.14273,-0.224719 -0.16442,-0.274004 -0.02,-0.04538 -0.0255,-0.06802 -0.012,-0.02557 l -0.008,-0.02555 c 0.0192,0.06299 0.0414,0.163267 0.0698,0.355489 0.0357,0.247464 0.06,0.521835 0.0792,0.829583 0.0292,0.478486 0.0402,0.971795 0.0417,1.482784 0.002,0.779931 -0.0198,1.567515 -0.0559,2.36199 -0.0427,0.92843 -0.10526,1.85434 -0.18775,2.775697 -0.0597,0.662663 -0.12848,1.312539 -0.21355,1.95223 -0.0522,0.389492 -0.1072,0.754748 -0.17368,1.105375 -0.0385,0.200482 -0.0717,0.351559 -0.10799,0.48012 -4.1e-4,0.0014 -0.002,0.0069 -0.003,0.01172 -0.20046,0.397986 -0.40739,0.796722 -0.61933,1.203466 -0.51674,0.989992 -1.04166,1.977785 -1.56929,2.961933 -0.75419,1.405739 -1.51238,2.7997 -2.27961,4.182411 -0.52413,0.943822 -1.04699,1.873488 -1.57934,2.791557 -0.30862,0.531396 -0.61198,1.045575 -0.92234,1.547232 -0.16096,0.259377 -0.31032,0.494646 -0.46126,0.715755 -0.0796,0.115093 -0.12386,0.176489 -0.15325,0.214119 0.029,-0.03018 -0.0315,0.02362 -0.16677,0.189688 -0.12053,0.143284 -0.23671,0.28696 -0.33387,0.406654 -0.38689,0.478409 -0.76375,0.954397 -1.13284,1.425428 -0.54201,0.692452 -1.0777,1.3887 -1.60391,2.093924 -0.34027,0.456635 -0.68162,0.922986 -1.01555,1.402141 -0.19421,0.279436 -0.39868,0.580185 -0.59708,0.89884 -0.0981,0.158491 -0.21835,0.357564 -0.33323,0.582171 -0.0768,0.149225 -0.17297,0.356883 -0.25056,0.60653 -0.13302,0.411054 -0.24937,0.868123 -0.32595,1.145256 -0.0791,0.285611 -0.14094,0.479529 -0.20745,0.637402 -0.0498,0.118336 -0.097,0.201204 -0.13691,0.258273 -0.0318,0.04553 -0.0653,0.08492 -0.0999,0.119139 l 0.0504,-0.0482 c -0.036,0.03341 -0.0147,0.0089 0.0738,-0.0626 0.0834,-0.06741 0.25729,-0.197322 0.51154,-0.301125 0.009,-0.0037 0.0183,-0.0074 0.0275,-0.01102 0.15593,-0.06125 0.32336,-0.106361 0.49964,-0.13082 0.17547,-0.02435 0.39269,-0.03272 0.6366,0.0049 0.2464,0.03802 0.54945,0.128092 0.85302,0.322517 0.31609,0.202448 0.58259,0.48703 0.7643,0.833166 0.0178,0.03385 0.0347,0.06815 0.0507,0.102876 0.10523,0.228334 0.15737,0.445555 0.18102,0.629043 0.0231,0.179353 0.0192,0.327564 0.0123,0.424233 -0.0144,0.201847 -0.0325,0.25263 -0.0177,0.162085 l -0.0203,0.108011 c -0.0302,0.141289 -0.0553,0.192386 -0.0454,0.165939 l -0.006,0.01493 c 0.009,-0.02357 0.0273,-0.06621 0.07,-0.153772 0.0675,-0.137489 0.14622,-0.281692 0.23264,-0.427115 0.0716,-0.11992 0.13149,-0.212039 0.18501,-0.285766 0.0337,-0.04602 0.0287,-0.03473 -0.001,-0.0034 -0.01,0.01023 -0.0196,0.02037 -0.0295,0.03041 0.082,-0.08281 0.16538,-0.164909 0.26284,-0.261282 0.5608,-0.552697 1.13803,-1.10068 1.72391,-1.667249 0.70167,-0.678424 1.40858,-1.374676 2.09276,-2.110299 0.1781,-0.19146 0.35176,-0.382928 0.52091,-0.573952 2.09213,-2.353277 4.13885,-4.632478 6.21736,-6.86726 1.39845,-1.504074 2.79253,-2.967338 4.18607,-4.392471 0.64328,-0.657987 1.28116,-1.302682 1.91215,-1.933672 0.43478,-0.434918 0.92367,-0.830585 1.44819,-1.193175 0.6141,-0.424609 1.27563,-0.804304 1.96505,-1.159683 0.88431,-0.45586 1.81246,-0.870168 2.75941,-1.293611 0.72006,-0.322354 1.44587,-0.647046 2.17269,-1.007382 0.60823,-0.302066 1.21713,-0.628856 1.81204,-1.006261 0.53363,-0.339001 1.0588,-0.720825 1.54986,-1.167195 0.10687,-0.0972 0.20864,-0.194292 0.30599,-0.291643 a 2.2246696,2.2246696 90 0 0 -3.14616,-3.146158 c -0.047,0.04699 -0.0979,0.09561 -0.15303,0.145784 -0.25832,0.23481 -0.56779,0.465589 -0.94131,0.702877 -0.41852,0.265501 -0.87999,0.516177 -1.40507,0.776949 -0.63408,0.314358 -1.28,0.603906 -2.01214,0.931667 -0.92221,0.412379 -1.96706,0.877513 -2.98094,1.400167 -0.80049,0.412637 -1.6388,0.889165 -2.45663,1.454642 -0.70259,0.48568 -1.407,1.049536 -2.06436,1.707116 -0.64208,0.642071 -1.29175,1.29869 -1.9471,1.969026 -1.42073,1.45294 -2.84056,2.943273 -4.26296,4.4731 -2.11201,2.2708 -4.18444,4.578902 -6.28727,6.944229 -0.14835,0.167523 -0.29757,0.332046 -0.45062,0.496581 -0.60198,0.647238 -1.24066,1.277736 -1.92774,1.942046 -0.54446,0.526513 -1.17566,1.126633 -1.75691,1.699492 -0.089,0.08798 -0.19582,0.193134 -0.29943,0.297833 -0.01,0.01004 -0.0198,0.02018 -0.0295,0.03041 -0.16608,0.174334 -0.29277,0.34208 -0.37303,0.451792 -0.16303,0.22453 -0.29761,0.438012 -0.4118,0.629269 -0.14222,0.239292 -0.27869,0.487908 -0.40699,0.74927 -0.0654,0.134163 -0.14995,0.313039 -0.22829,0.517616 -0.002,0.005 -0.004,0.01 -0.006,0.01494 -0.0199,0.05308 -0.0905,0.237648 -0.13909,0.46464 -0.008,0.03583 -0.0144,0.07185 -0.0203,0.108012 0.0109,-0.06685 -0.0126,0.009 -0.0288,0.235759 -0.008,0.109067 -0.0117,0.269661 0.013,0.46118 0.0252,0.19561 0.0804,0.424752 0.191,0.664611 0.016,0.03472 0.0329,0.06903 0.0507,0.102877 0.18454,0.351535 0.45492,0.640164 0.77552,0.845501 0.30812,0.197339 0.61634,0.289177 0.8682,0.328035 0.24934,0.03847 0.47228,0.03002 0.65333,0.0049 0.18186,-0.02523 0.35474,-0.07181 0.51563,-0.135008 0.009,-0.0036 0.0184,-0.0073 0.0275,-0.01102 0.28806,-0.117607 0.49213,-0.267687 0.60395,-0.358085 0.11672,-0.09436 0.16448,-0.144394 0.15498,-0.135575 l 0.0503,-0.0482 c 0.22838,-0.225592 0.43569,-0.471834 0.61937,-0.734706 0.24975,-0.356826 0.44204,-0.726421 0.59162,-1.08212 0.18006,-0.427413 0.30263,-0.844099 0.3949,-1.177438 0.11728,-0.424435 0.1803,-0.683871 0.27404,-0.971339 0.005,-0.01616 0.0104,-0.03238 0.0152,-0.04866 -0.0253,0.08418 -0.0458,0.119755 -0.0421,0.11271 0.0338,-0.06602 0.0785,-0.143394 0.15441,-0.265995 0.137,-0.220025 0.29239,-0.449978 0.46887,-0.703917 0.29462,-0.422741 0.60511,-0.847416 0.93045,-1.28402 0.49962,-0.669584 1.01354,-1.337712 1.53997,-2.01026 0.35945,-0.458719 0.72139,-0.915788 1.08699,-1.367877 0.1077,-0.132674 0.1994,-0.24594 0.29174,-0.35538 0.0105,-0.01248 0.0209,-0.02508 0.0312,-0.0378 -0.0828,0.102684 -0.0761,0.09141 0.0325,-0.03048 0.006,-0.0066 0.0117,-0.01321 0.0175,-0.01987 0.2147,-0.246736 0.38674,-0.497453 0.48677,-0.642079 0.002,-0.0034 0.005,-0.0068 0.007,-0.0102 0.20767,-0.303857 0.39862,-0.606081 0.57349,-0.887883 0.34363,-0.55543 0.67066,-1.11026 0.98845,-1.657447 0.55218,-0.952274 1.08966,-1.908142 1.62123,-2.865356 0.77968,-1.40515 1.54806,-2.817912 2.31045,-4.238943 0.53288,-0.993929 1.06596,-1.997019 1.59336,-3.007426 0.21247,-0.407777 0.43068,-0.828055 0.6452,-1.253862 0.17119,-0.325978 0.2631,-0.629595 0.31296,-0.804625 0.0894,-0.316666 0.15068,-0.614067 0.19794,-0.859987 0.0885,-0.466534 0.15559,-0.919402 0.21343,-1.35064 0.0958,-0.720742 0.17108,-1.435575 0.23486,-2.143068 0.0884,-0.987476 0.15527,-1.97749 0.20095,-2.970565 0.0385,-0.847702 0.0625,-1.708118 0.0605,-2.57703 -0.002,-0.56472 -0.0139,-1.149464 -0.0502,-1.744889 -0.0233,-0.373064 -0.0569,-0.778485 -0.11748,-1.198475 -0.0403,-0.27271 -0.10063,-0.630943 -0.21713,-1.012373 -0.003,-0.0085 -0.005,-0.01705 -0.008,-0.02555 -0.0283,-0.08881 -0.0791,-0.243692 -0.15502,-0.416137 -0.0775,-0.176111 -0.19407,-0.401236 -0.37135,-0.633453 -0.024,-0.03144 -0.0488,-0.06224 -0.0745,-0.09236 0.0429,0.05039 0.014,0.0079 -0.10029,-0.113723 -0.0554,-0.05895 -0.1394,-0.142497 -0.25077,-0.23115 -0.11314,-0.09006 -0.25822,-0.188385 -0.43688,-0.274552 -0.011,-0.0053 -0.0221,-0.01057 -0.0333,-0.01572 -0.31522,-0.145647 -0.59051,-0.193645 -0.77529,-0.214063 -0.163,-0.01801 -0.31021,-0.01705 -0.31641,-0.0171 -0.023,-1.83e-4 -0.046,-10e-6 -0.069,5.2e-4 -0.40586,0.0094 -0.77045,0.08516 -0.93268,0.117162 -0.006,0.0012 -0.0125,0.0025 -0.0188,0.0038 -0.37124,0.07657 -0.72255,0.169082 -1.03498,0.255462 -0.56759,0.15803 -1.11759,0.329811 -1.64898,0.502401 -0.8686,0.282922 -1.72489,0.582054 -2.57134,0.888703 -1.15565,0.419283 -2.30475,0.857584 -3.44794,1.314538 -0.92243,0.36919 -1.84875,0.753232 -2.7721,1.159724 -0.57464,0.253479 -1.1611,0.5207 -1.74735,0.809355 -0.34728,0.171588 -0.719,0.361736 -1.09358,0.576857 -0.003,0.002 -0.007,0.004 -0.0103,0.006 -0.20993,0.122065 -0.53406,0.312429 -0.85533,0.565587 -0.21048,0.164635 -0.38031,0.344656 -0.41123,0.376183 -0.14978,0.152305 -0.19015,0.19739 -0.26176,0.26511 -0.0316,0.02985 -0.0189,0.0096 0.0601,-0.03759 0.0696,-0.04191 0.13834,-0.06854 0.19397,-0.08413 0.0465,-0.01308 0.0549,-0.0081 -0.0122,-0.0044 -0.0713,0.0029 -0.0626,0.0017 -0.0411,0.0023 0.0227,7.07e-4 0.0454,0.0018 0.068,0.0032 0.31405,0.01942 0.63458,0.110573 0.93031,0.284101 0.29984,0.175941 0.6055,0.456956 0.81273,0.862087 0.0814,0.159314 0.13313,0.312021 0.16573,0.446675 0.033,0.136297 0.0465,0.254417 0.0519,0.344029 0.011,0.182026 -0.004,0.269528 -0.005,0.278954 -0.002,0.0162 -0.004,0.03238 -0.006,0.04854 -0.0191,0.147695 -0.0411,0.17995 -0.0164,0.108275 l -0.005,0.01489 c 0.0289,-0.08194 0.0704,-0.181692 0.13809,-0.3314 0.11287,-0.248112 0.24155,-0.50644 0.38783,-0.794674 0.24397,-0.479173 0.4899,-0.946124 0.75238,-1.4518 0.50007,-0.96185 1.00675,-1.95772 1.48008,-2.982231 0.3856,-0.834905 0.75658,-1.701719 1.08465,-2.600106 0.13442,-0.364232 0.26626,-0.769846 0.36644,-1.063776 0.22268,-0.654619 0.45256,-1.317561 0.67982,-1.993539 0.46807,-1.389831 0.92023,-2.813102 1.31388,-4.266424 0.31169,-1.151406 0.59068,-2.331508 0.80696,-3.536807 0.17312,-0.967511 0.3085,-1.964054 0.37525,-2.9818518 0.0545,-0.8381182 0.0637,-1.7069651 -0.007,-2.5909651 -0.0612,-0.7615049 -0.18333,-1.5534695 -0.4055,-2.3464114 -0.19218,-0.6855316 -0.46358,-1.3832621 -0.84294,-2.0523591 -0.33747,-0.5962501 -0.75849,-1.1623511 -1.26208,-1.66584622 -0.25155,-0.25244566 -0.52617,-0.42651285 -0.78113,-0.54436314 -0.25547,-0.11809045 -0.50482,-0.18635073 -0.72754,-0.22378892 -0.31194,-0.0516334 -0.58857,-0.051063 -0.81448,-0.0336875 -0.22364,0.0172012 -0.41824,0.05269415 -0.56054,0.08265495 -0.006,0.0012677 -0.012,0.0025604 -0.018,0.003878 -0.47429,0.10397495 -0.88806,0.26405712 -1.20192,0.39682938 -0.45444,0.19409833 -0.86873,0.40780886 -1.24253,0.61351435 -0.5695,0.31448105 -1.10907,0.64740535 -1.62089,0.97853755 -0.74449,0.4825665 -1.46313,0.9840046 -2.16036,1.4890922 -0.9148,0.6634339 -1.8081,1.3452046 -2.68403,2.0369922 -0.737458,0.5829456 -1.467815,1.1768011 -2.189101,1.7843929 -0.358859,0.3028032 -0.724566,0.615731 -1.088258,0.9406412 -0.141909,0.1274359 -0.315832,0.2839073 -0.489748,0.4548913 -0.0043,0.00422 -0.0086,0.00846 -0.01283,0.012716 -0.777339,0.7767468 -1.534543,1.5682892 -2.27409,2.3698732 -1.54653,1.676596 -3.02195,3.403769 -4.446194,5.152032 -1.748253,2.146425 -3.427708,4.335229 -5.069357,6.523935 -0.323102,0.431027 -0.602675,0.870036 -0.849775,1.295691 -0.358536,0.618478 -0.667596,1.240877 -0.945442,1.835276 -0.44628,0.9562 -0.833474,1.88536 -1.221239,2.76247 -0.275676,0.623217 -0.542715,1.204332 -0.83113,1.756955 -0.22267,0.425889 -0.445783,0.811066 -0.684151,1.159144 -0.201836,0.294257 -0.400156,0.539943 -0.601441,0.741376 -0.264203,0.264232 -0.510094,0.534968 -0.739379,0.804614 -0.472152,0.555707 -0.891834,1.126559 -1.272835,1.676697 -0.509857,0.737091 -0.987499,1.492383 -1.431436,2.187653 -0.46816,0.733269 -0.905912,1.414205 -1.369554,2.064602 -0.350572,0.491289 -0.698901,0.940858 -1.063683,1.347661 -0.135517,0.151567 -0.279261,0.301303 -0.433744,0.454169 -0.0031,0.003 -0.0061,0.0061 -0.0092,0.0091 -1.413236,1.414772 -2.819165,2.862221 -4.175421,4.369535 -1.092995,1.214876 -2.156695,2.471165 -3.163621,3.782808 -0.177802,0.232212 -0.365667,0.47893 -0.551602,0.734657 -0.352295,0.484648 -0.687101,0.975283 -1.006893,1.468062 -0.424255,0.654687 -0.830956,1.327818 -1.210795,2.022841 -0.31618,0.579467 -0.620233,1.185278 -0.89257,1.819547 -0.204969,0.478607 -0.40003,0.991048 -0.558828,1.534897 -0.119802,0.412241 -0.227532,0.870176 -0.286844,1.363069 -0.04584,0.385771 -0.06735,0.832285 -0.01337,1.312215 0.04679,0.413946 0.15468,0.887414 0.382323,1.362524 0.05634,0.117577 0.122909,0.229991 0.19893,0.335909 -0.10771,-0.150069 -0.172111,-0.280608 -0.200844,-0.341724 -0.03187,-0.0678 -0.03856,-0.08666 -0.02608,-0.05765 0.0087,0.02016 0.04915,0.115278 0.113531,0.228664 0.06252,0.110118 0.160992,0.262428 0.308555,0.421637 0.259719,0.280611 0.57942,0.482457 0.921663,0.599365 0.348824,0.119149 0.673046,0.134738 0.930192,0.111405 0.256418,-0.02327 0.477626,-0.0875 0.656402,-0.161139 0.180048,-0.07416 0.349351,-0.17106 0.503774,-0.287871 l -0.01935,0.01447 c 0.246248,-0.182098 0.406052,-0.373939 0.492097,-0.487032 0.09099,-0.119588 0.126351,-0.180511 0.121728,-0.173513 l 0.03131,-0.04877 c 0.11228,-0.180002 0.19449,-0.348284 0.235545,-0.43248 0.0015,-0.003 0.0029,-0.0061 0.0044,-0.0091 0.107925,-0.223916 0.199759,-0.440254 0.27458,-0.620227 0.152494,-0.368708 0.291039,-0.729904 0.419685,-1.072506 0.151576,-0.40404 0.296626,-0.805743 0.436139,-1.195415 0.02365,-0.06469 0.03078,-0.08393 0.02095,-0.05898 -0.024,0.06092 -0.05069,0.120748 -0.07997,0.179312 0.278573,-0.557148 0.578427,-1.108008 0.894541,-1.654346 0.622818,-1.076413 1.307126,-2.132778 2.023074,-3.197781 0.735778,-1.094777 1.503776,-2.19527 2.261055,-3.329852 0.298704,-0.449402 0.613115,-0.891021 0.940915,-1.33344 0.50285,-0.679295 1.045136,-1.369874 1.59194,-2.097968 0.461586,-0.614545 0.926355,-1.25875 1.364433,-1.938084 0.401664,-0.622094 0.777182,-1.268383 1.116011,-1.938665 0.170374,-0.330146 0.295956,-0.651762 0.392854,-0.935926 0.194445,-0.572818 0.326266,-1.131485 0.429361,-1.628819 0.142255,-0.693631 0.246356,-1.373842 0.330983,-2.027028 0.127866,-0.993919 0.21603,-1.977612 0.281421,-2.940472 0.08962,-1.330493 0.136727,-2.650922 0.152888,-3.955519 0.01846,-1.536891 -0.0062,-3.064426 -0.07497,-4.581689 -0.06027,-1.317668 -0.153744,-2.630388 -0.29307,-3.938224 -0.107551,-1.004763 -0.242123,-2.010651 -0.420675,-3.01468 -0.133048,-0.744964 -0.291419,-1.498466 -0.494361,-2.252003 -0.164947,-0.609083 -0.364675,-1.245294 -0.63072,-1.880863 -0.211944,-0.501504 -0.493991,-1.082087 -0.908009,-1.638787 -0.0035,-0.0047 -0.0069,-0.0093 -0.01043,-0.01391 -0.135642,-0.179441 -0.327596,-0.416097 -0.580283,-0.648104 -0.01071,-0.0098 -0.02151,-0.01955 -0.0324,-0.02917 -0.48134,-0.424871 -0.998859,-0.644391 -1.327541,-0.764537 -0.0037,-0.0014 -0.0075,-0.0027 -0.01118,-0.0041 -0.47767,-0.171716 -0.935612,-0.26366 -1.30808,-0.322803 -0.516269,-0.08063 -1.008623,-0.117896 -1.456624,-0.137376 -0.654112,-0.02762 -1.288408,-0.01944 -1.888434,0.004 -0.865659,0.03449 -1.711752,0.103584 -2.527117,0.189033 -1.107161,0.116659 -2.192909,0.267666 -3.251222,0.440641 -0.959891,0.157373 -1.904209,0.333805 -2.835621,0.533223 -0.618496,0.132889 -1.233773,0.275798 -1.847729,0.439102 -0.36015,0.09633 -0.734513,0.202703 -1.115002,0.330237 -0.0035,0.0012 -0.0071,0.0024 -0.01059,0.0036 -0.210412,0.0717 -0.522358,0.179944 -0.846457,0.339438 -0.0043,0.0021 -0.0085,0.0042 -0.01275,0.0063 -0.396396,0.198234 -0.832359,0.359063 -1.298966,0.492863 -0.563317,0.161442 -1.157972,0.280878 -1.778624,0.382731 -1.2033,0.197122 -2.532736,0.330669 -3.736651,0.527892 -0.734261,0.119208 -1.475597,0.265261 -2.216825,0.472946 -0.693752,0.194542 -1.380635,0.44205 -2.04291,0.768656 -0.0038,0.0019 -0.0076,0.0038 -0.01142,0.0057 -0.07052,0.03528 -0.14082,0.0703 -0.210892,0.10505 -0.595413,0.295281 -1.186419,0.577242 -1.774873,0.845647 -1.215176,0.554676 -2.432454,1.057622 -3.650424,1.508634 -1.146691,0.425078 -2.300077,0.80634 -3.450556,1.152243 -1.8092,0.544432 -3.651211,1.014978 -5.481737,1.465164 -1.292389,0.317563 -3.000636,0.726324 -4.293462,1.043993 -0.582539,0.142868 -1.150615,0.282515 -1.721449,0.426225 -0.0046,0.0012 -0.0092,0.0023 -0.01387,0.0035 -0.729672,0.188698 -1.417216,0.429279 -2.050488,0.682287 -0.815874,0.326511 -1.588026,0.692448 -2.306161,1.058726 -1.071216,0.546942 -2.102949,1.137353 -3.055031,1.692379 -0.771743,0.449732 -1.409745,0.829538 -2.123528,1.237243 -0.495001,0.282279 -0.951737,0.53509 -1.404617,0.765019 -0.0059,0.003 -0.01181,0.006 -0.01769,0.0091 -0.124645,0.06469 -0.235326,0.112676 -0.333953,0.147882 -0.254093,0.09153 -0.539493,0.157124 -0.863871,0.204297 -0.405985,0.05876 -0.838002,0.0842 -1.294339,0.09345 -0.621671,0.01213 -1.267014,-0.0069 -1.918033,-0.02506 -0.8089822,-0.02268 -1.6108997,-0.0456 -2.440449,-0.02044 -0.6818617,0.02109 -1.3558797,0.07399 -2.0298913,0.188338 -0.6618857,0.112533 -1.3012008,0.281604 -1.9119865,0.527354 -0.6117295,0.245708 -1.1554597,0.554661 -1.6272573,0.905752 a 2.2246696,2.2246696 90 0 0 2.656235,3.569458 z"
       id="path-1"
       inkscape:path-effect="#path-effect11;#path-effect12"
       inkscape:original-d="M 3.1145374,32.035242 C 6.3135139,29.657845 11.91267,31.863048 15.127753,30.255507 18.050706,28.79403 22.163276,25.827022 25.806167,24.9163 c 8.344182,-2.086046 13.543089,-2.989606 20.911895,-6.674009 3.262172,-1.631086 7.797617,-1.006738 11.123348,-2.669604 1.882804,-0.941402 14.113623,-3.2388 16.017621,-1.334802 3.306257,3.306258 3.242163,22.881313 1.334802,26.696036 -1.38469,2.769378 -3.198983,4.576007 -4.894274,7.118942 -1.798572,2.697859 -3.828442,5.432215 -5.339207,8.453745 -0.02422,0.04845 -1.187502,3.409135 -1.334801,3.114537 -1.073031,-2.146062 2.288791,-7.204438 3.559471,-8.898678 2.29326,-3.05768 4.993016,-5.882884 7.563877,-8.453745 2.364376,-2.364375 3.974551,-6.19922 6.229075,-8.453744 2.259674,-2.259675 3.283279,-7.047309 5.339207,-9.788546 3.638189,-4.850919 7.43278,-9.657451 11.568282,-13.792952 1.173429,-1.1734292 11.061307,-9.40564863 12.458147,-8.0088104 4.33987,4.3398712 0.13511,15.1673624 -1.3348,19.5770924 -1.51404,4.542117 -4.8795,9.343612 -4.0044,9.343612 1.02252,0 1.23181,-0.341942 1.77973,-0.889867 1.36407,-1.364074 14.56922,-6.342674 15.12775,-5.784141 1.03893,1.038924 0.23748,11.983205 -0.44493,13.348017 -1.19285,2.385706 -6.9728,13.201875 -8.00881,14.237886 -0.17376,0.173762 -4.54205,5.617336 -4.89427,6.674009 -0.37369,1.121055 -0.46101,2.240742 -1.33481,3.114537 -0.469,0.469002 0.42087,-1.310734 0.88987,-1.779736 1.38699,-1.386988 3.0487,-2.873616 4.44934,-4.449339 4.27851,-4.813327 7.87734,-8.767207 12.45815,-13.348018 3.54734,-3.547342 9.29979,-4.405514 12.01322,-7.118942"
       style="fill:#000000;fill-rule:nonzero;stroke:none;stroke-width:1px;stroke-linecap:butt;stroke-linejoin:miter;stroke-opacity:1" />
    <path
       d="m 132.2626,20.018936 c 0.82354,-0.04346 1.73147,-0.135062 2.71195,-0.299062 0.84979,-0.141909 1.73904,-0.33562 2.67446,-0.589297 0.9592,-0.259932 1.92733,-0.571794 2.93441,-0.933407 0.86469,-0.310443 1.72161,-0.643869 2.6216,-1.003844 0.23636,-0.09437 0.49499,-0.185231 0.78874,-0.279013 0.40316,-0.128336 0.82965,-0.24768 1.28556,-0.361398 0.60013,-0.149372 1.22479,-0.281891 1.87373,-0.395767 0.70226,-0.122957 1.42401,-0.222347 2.1587,-0.288636 0.60709,-0.05454 1.22157,-0.08634 1.83637,-0.08446 0.49213,0.0017 0.9798,0.02499 1.45726,0.07947 0.38043,0.04363 0.74464,0.106024 1.0888,0.194097 0.27923,0.07163 0.53084,0.156757 0.75369,0.25778 0.18795,0.08528 0.34049,0.175779 0.4604,0.267651 0.0536,0.04088 0.10767,0.08836 0.16479,0.147112 0.005,0.0048 0.009,0.0097 0.0142,0.01448 0.35751,0.361043 0.70788,0.754859 1.06519,1.184607 0.46143,0.555339 0.90922,1.140405 1.37947,1.770187 0.40706,0.5451 0.824,1.116204 1.26672,1.703085 0.30897,0.409215 0.64192,0.841364 0.9969,1.27065 0.15826,0.191148 0.32485,0.386703 0.50048,0.582896 0.12786,0.14282 0.26326,0.289063 0.40609,0.436171 0.0542,0.05627 0.0974,0.09899 0.11806,0.120102 l -0.0534,-0.05663 c -0.18376,-0.201847 -0.22508,-0.328069 -0.20743,-0.290473 l -0.0103,-0.02226 c 0.0127,0.02778 0.037,0.08997 0.0847,0.254206 0.0503,0.175331 0.0985,0.376738 0.14983,0.615544 0.0749,0.350162 0.14187,0.717013 0.20866,1.114331 0.0962,0.574923 0.18278,1.162512 0.26876,1.780671 0.18188,1.311344 0.34595,2.666625 0.52736,4.061674 0.0751,0.575663 0.15575,1.180917 0.24662,1.789349 0.0539,0.358935 0.11449,0.743096 0.18725,1.134509 0.0445,0.237094 0.0995,0.514671 0.17333,0.804248 0.0369,0.145554 0.0806,0.29546 0.13092,0.446147 0.0528,0.167958 0.0955,0.368347 0.12647,0.611025 0.0355,0.279371 0.0517,0.58495 0.0524,0.925985 6.2e-4,0.414288 -0.0218,0.847731 -0.0595,1.313718 -0.0498,0.61055 -0.12205,1.229549 -0.20374,1.8948 -0.0974,0.792556 -0.21331,1.677409 -0.29808,2.547909 -0.057,0.587789 -0.10456,1.211 -0.12001,1.852316 -0.0123,0.52171 -0.004,1.079708 0.0495,1.65636 0.0448,0.478411 0.12323,0.994229 0.26416,1.522996 0.12337,0.462424 0.30008,0.953521 0.55819,1.438116 0.23434,0.440787 0.53596,0.872813 0.91144,1.263557 0.29058,0.303467 0.61505,0.569302 0.95818,0.794338 0.19967,0.132656 0.46455,0.303997 0.76586,0.461991 0.18185,0.09508 0.41057,0.203788 0.6769,0.295481 0.20118,0.06888 0.47007,0.144859 0.78791,0.178594 0.26693,0.02807 0.61972,0.03193 1.01254,-0.06324 0.3351,-0.08044 0.67674,-0.230357 0.9878,-0.459606 0.003,-0.0021 0.006,-0.0041 0.008,-0.0062 0.0885,-0.06587 0.22657,-0.175833 0.37112,-0.331723 0.0546,-0.05885 0.10592,-0.120615 0.15381,-0.185014 0.16735,-0.225007 0.26113,-0.43475 0.31162,-0.563771 0.0524,-0.133817 0.071,-0.205786 0.0725,-0.210795 0.004,-0.01445 0.009,-0.02895 0.0128,-0.04349 0.0507,-0.178554 0.0785,-0.336184 0.0919,-0.413256 0.0332,-0.195589 0.0542,-0.370407 0.0699,-0.508259 0.0305,-0.273884 0.0534,-0.53773 0.0736,-0.779995 0.0341,-0.410655 0.0627,-0.803692 0.0956,-1.178737 0.0157,-0.176396 0.0302,-0.329464 0.048,-0.473735 0.01,-0.07674 0.015,-0.10995 0.0183,-0.127038 l -0.003,0.01626 c 0.007,-0.03275 4.5e-4,0.03327 -0.0564,0.1886 -0.003,0.0081 -0.006,0.01623 -0.009,0.02432 -0.0387,0.101908 -0.0767,0.175057 -0.0786,0.178842 -0.005,0.0099 0.009,-0.01519 0.0389,-0.07755 0.20167,-0.405191 0.39939,-0.81013 0.59475,-1.213056 0.42445,-0.876207 0.84339,-1.757793 1.25613,-2.645416 0.37724,-0.811793 0.75174,-1.633629 1.11686,-2.464777 0.24902,-0.567414 0.49729,-1.146762 0.73679,-1.736209 0.15732,-0.387874 0.31617,-0.792242 0.46641,-1.208988 0.0929,-0.25871 0.19081,-0.543525 0.27947,-0.845281 0.0553,-0.188683 0.11536,-0.413223 0.1627,-0.661073 0.1,-0.505068 0.19054,-1.009643 0.27747,-1.489382 0.14718,-0.813194 0.28756,-1.582491 0.45523,-2.337329 0.1019,-0.457949 0.21048,-0.895908 0.33468,-1.317029 0.0979,-0.331405 0.20166,-0.639289 0.31737,-0.926364 0.0706,-0.174929 0.14347,-0.335899 0.21992,-0.483876 0.0878,-0.170114 0.18481,-0.342781 0.29149,-0.52133 0.16576,-0.276872 0.34062,-0.542455 0.52475,-0.793634 0.16697,-0.227416 0.33272,-0.430821 0.50075,-0.610544 0.13048,-0.139323 0.24887,-0.249741 0.35819,-0.336418 0.0901,-0.0713 0.15218,-0.108633 0.1885,-0.126917 0.0239,-0.012 0.0147,-0.0022 -0.043,0.0088 -0.0514,0.0098 -0.12783,0.01657 -0.22405,0.0041 -0.0919,-0.01174 -0.17006,-0.03837 -0.23078,-0.06779 -0.0649,-0.03137 -0.0825,-0.05226 -0.0721,-0.04265 0.005,0.0044 0.0183,0.01747 0.0438,0.04503 9.5e-4,0.0011 0.0136,0.01536 0.0263,0.02966 -0.004,-0.0049 0.008,0.0099 0.0209,0.02465 -0.004,-0.0045 0.009,0.01077 0.021,0.02601 -0.003,-0.004 0.009,0.01172 0.0212,0.02744 -0.003,-0.0035 0.009,0.01272 0.0214,0.02893 -0.002,-0.0029 0.01,0.01378 0.0215,0.03048 -0.002,-0.0023 0.01,0.01488 0.0216,0.03209 -0.001,-0.0017 0.0103,0.01603 0.0217,0.03375 -6.3e-4,-0.001 0.0106,0.01721 0.0218,0.03545 -2e-4,-3.37e-4 0.0109,0.01843 0.0219,0.0372 0.002,0.003 0.014,0.02481 0.0262,0.04665 0.0207,0.03805 0.0412,0.07804 0.0614,0.120039 0.0296,0.06166 0.0583,0.127185 0.0861,0.196708 0.115,0.288598 0.20508,0.621292 0.27467,1.003113 0.10045,0.555297 0.14683,1.151218 0.15836,1.792278 0.0122,0.722222 -0.022,1.463156 -0.0858,2.225131 -0.07,0.831576 -0.17451,1.670379 -0.30119,2.518628 -0.16275,1.087305 -0.36037,2.177415 -0.5779,3.274554 -0.38104,1.920034 -0.81904,3.834273 -1.2611,5.781818 -0.22275,0.982483 -0.4476,1.976416 -0.65978,2.97678 -0.16189,0.765006 -0.31948,1.545837 -0.45678,2.33852 -0.11339,0.659354 -0.21986,1.356694 -0.28491,2.076869 -0.041,0.468818 -0.0726,1.008381 -0.0402,1.580164 1.9e-4,0.0034 3.9e-4,0.0067 5.9e-4,0.01006 0.0192,0.314006 0.0621,0.734278 0.19338,1.185953 0.0579,0.196801 0.13849,0.421897 0.25984,0.658798 0.007,0.01274 0.0132,0.02541 0.0199,0.03802 0.007,0.01285 0.0138,0.02566 0.0206,0.03845 0.0137,0.02561 0.028,0.05094 0.0427,0.07599 0.007,0.01228 0.0144,0.02454 0.0216,0.03676 0.0155,0.02642 0.0316,0.05251 0.0483,0.07826 0.008,0.01172 0.0151,0.0234 0.0226,0.03505 0.0175,0.0271 0.0356,0.05381 0.0542,0.08012 0.008,0.01115 0.0158,0.02226 0.0236,0.03334 0.0196,0.02761 0.0398,0.05477 0.0606,0.08146 0.008,0.01057 0.0165,0.02111 0.0247,0.03161 0.0218,0.02791 0.0442,0.0553 0.0673,0.08214 0.009,0.01 0.0172,0.01995 0.0257,0.02987 0.0213,0.0248 0.0432,0.04912 0.0656,0.07295 0.11719,0.124748 0.23184,0.229817 0.28748,0.281084 0.003,0.0027 0.006,0.0054 0.009,0.008 0.43617,0.397547 0.9171,0.727489 1.41987,0.990362 0.57709,0.302082 1.17926,0.514375 1.77622,0.652567 0.67218,0.155618 1.34609,0.220065 1.99898,0.21453 0.74897,-0.0066 1.48496,-0.104702 2.19069,-0.278822 0.73262,-0.18107 1.44576,-0.447015 2.11931,-0.797021 0.60271,-0.313436 1.18188,-0.698683 1.7114,-1.160848 0.48041,-0.419296 0.92311,-0.905559 1.29743,-1.457313 0.002,-0.0033 0.004,-0.0066 0.007,-0.0099 0.25248,-0.376491 0.48914,-0.755442 0.71216,-1.132331 0.48439,-0.819345 0.91697,-1.65201 1.30943,-2.482516 0.46111,-0.976487 0.87243,-1.962244 1.24446,-2.945369 0.44027,-1.164247 0.82936,-2.335238 1.17602,-3.504048 0.36008,-1.214975 0.67607,-2.433528 0.95076,-3.651886 0.24611,-1.092721 0.45966,-2.187558 0.63689,-3.284732 0.0721,-0.447772 0.13906,-0.897413 0.19777,-1.350541 0.0861,-0.663836 0.15744,-1.325777 0.22407,-1.953494 0.11157,-1.05441 0.21207,-2.037524 0.3427,-3.023092 0.1004,-0.757139 0.21387,-1.482529 0.35569,-2.186663 0.11696,-0.579765 0.2502,-1.130381 0.40928,-1.655737 0.14272,-0.470694 0.30215,-0.907348 0.48515,-1.311653 0.0471,-0.104485 0.0991,-0.211874 0.15923,-0.3321 0.002,-0.0045 0.005,-0.009 0.007,-0.01356 0.2492,-0.506526 0.45797,-1.009674 0.63923,-1.479067 0.2357,-0.611223 0.44943,-1.231151 0.6411,-1.781792 0.24231,-0.696394 0.45997,-1.316034 0.70483,-1.916954 0.18844,-0.462126 0.38008,-0.880477 0.58854,-1.264106 0.18894,-0.347588 0.38506,-0.653437 0.59224,-0.92056 0.1287,-0.165926 0.25964,-0.314311 0.39202,-0.445884 -0.0173,0.01707 -0.0553,0.0536 -0.1371,0.09761 -0.0663,0.03583 -0.1334,0.0598 -0.19454,0.07442 -0.0521,0.01258 -0.0728,0.01021 -0.0227,0.0075 0.0601,-0.0033 0.24171,-1.03e-4 0.52975,-0.02408 0.22709,-0.01892 0.52687,-0.06116 0.85442,-0.170819 0.30219,-0.100326 0.58598,-0.245882 0.83867,-0.424279 0.33112,-0.232781 0.57518,-0.498733 0.74569,-0.718627 0.21283,-0.27475 0.36207,-0.542193 0.46426,-0.746184 a 2.2246696,2.2246696 90 0 0 -3.97812,-1.992786 c -0.0244,0.04862 -0.0265,0.04385 -0.003,0.01335 0.0223,-0.0288 0.0876,-0.108064 0.20854,-0.19307 0.0936,-0.06609 0.20098,-0.120941 0.31659,-0.159325 0.11539,-0.03864 0.18341,-0.04223 0.18356,-0.04225 -0.0139,0.0012 -0.14295,9.08e-4 -0.40329,0.01536 -0.1921,0.01033 -0.46738,0.03495 -0.7741,0.109012 -0.29009,0.06937 -0.58897,0.179435 -0.87833,0.335889 -0.3506,0.188706 -0.64315,0.422305 -0.87988,0.655506 -0.28498,0.283207 -0.54157,0.576485 -0.77835,0.881761 -0.38037,0.49042 -0.70425,1.004927 -0.98577,1.522839 -0.30858,0.567884 -0.56874,1.143498 -0.79943,1.709258 -0.29487,0.723641 -0.54788,1.447439 -0.78677,2.133991 -0.19983,0.574088 -0.38689,1.115781 -0.58996,1.642388 -0.15286,0.395856 -0.30802,0.765378 -0.47749,1.11048 -0.073,0.145995 -0.15296,0.310044 -0.23166,0.484694 -0.27659,0.611046 -0.50095,1.234704 -0.68835,1.852788 -0.20897,0.690112 -0.37454,1.381754 -0.51273,2.066793 -0.16752,0.831722 -0.29604,1.660776 -0.40483,2.481068 -0.14023,1.058045 -0.24778,2.111413 -0.35651,3.138946 -0.0667,0.62798 -0.13316,1.243233 -0.21193,1.850366 -0.0516,0.398488 -0.11152,0.801755 -0.17792,1.214133 -0.16165,1.00072 -0.35756,2.00604 -0.58482,3.015086 -0.25357,1.124687 -0.5449,2.247861 -0.87606,3.365255 -0.31892,1.075266 -0.67393,2.142513 -1.07174,3.194495 -0.33634,0.888795 -0.70237,1.764463 -1.106,2.619221 -0.34386,0.72767 -0.71311,1.436386 -1.116,2.117864 -0.18475,0.312215 -0.37567,0.617526 -0.57413,0.913709 -0.14124,0.207313 -0.32144,0.409578 -0.53823,0.598788 -0.24208,0.211285 -0.52346,0.401666 -0.83791,0.565197 -0.35172,0.182766 -0.73354,0.326299 -1.13375,0.425213 -0.38512,0.09502 -0.77663,0.145848 -1.1624,0.149235 -0.33551,0.0028 -0.65756,-0.03071 -0.95711,-0.100056 -0.26436,-0.0612 -0.50557,-0.149507 -0.71721,-0.26029 -0.18112,-0.0947 -0.34285,-0.207275 -0.48114,-0.332652 -0.0508,-0.04691 -0.0682,-0.06522 -0.0547,-0.0509 0.0224,0.02383 0.0443,0.04816 0.0656,0.07295 -0.009,-0.0099 -0.0171,-0.01988 -0.0257,-0.02987 l 0.0673,0.08214 c -0.008,-0.01051 -0.0164,-0.02104 -0.0246,-0.03161 l 0.0606,0.08146 c -0.008,-0.01108 -0.0157,-0.02219 -0.0236,-0.03334 l 0.0542,0.08012 c -0.008,-0.01165 -0.0151,-0.02334 -0.0226,-0.03505 l 0.0483,0.07826 c -0.007,-0.01222 -0.0144,-0.02447 -0.0216,-0.03676 l 0.0427,0.07599 c -0.007,-0.01278 -0.0137,-0.0256 -0.0206,-0.03845 l 0.0199,0.03802 c 0.0357,0.06967 0.0479,0.111492 0.0506,0.120899 0.004,0.01206 -0.0133,-0.05788 -0.0225,-0.203778 -0.0145,-0.262006 -0.002,-0.558722 0.0301,-0.929567 0.0491,-0.543765 0.13354,-1.109186 0.23756,-1.714025 0.12352,-0.713099 0.26859,-1.433993 0.425,-2.17312 0.20461,-0.964689 0.42286,-1.929788 0.64614,-2.914586 0.43789,-1.929172 0.89092,-3.908102 1.2863,-5.900411 0.22664,-1.143029 0.43785,-2.305254 0.61403,-3.482379 0.13702,-0.9175 0.2545,-1.853929 0.33453,-2.80453 0.0725,-0.866536 0.11606,-1.762063 0.10067,-2.674699 -0.0144,-0.800092 -0.0733,-1.647332 -0.22928,-2.509636 -0.10819,-0.593618 -0.26793,-1.224788 -0.5196,-1.856378 -0.063,-0.157706 -0.13173,-0.315657 -0.20766,-0.473854 -0.0554,-0.115318 -0.11463,-0.231031 -0.1782,-0.346618 -0.003,-0.0062 -0.007,-0.01246 -0.0104,-0.01866 -0.0143,-0.02544 -0.0286,-0.05091 -0.043,-0.07639 -0.007,-0.01261 -0.0143,-0.02515 -0.0216,-0.03762 -0.0147,-0.02499 -0.0294,-0.04999 -0.0442,-0.07502 -0.007,-0.01274 -0.0151,-0.02541 -0.0229,-0.038 -0.0151,-0.02453 -0.0302,-0.04908 -0.0453,-0.07363 -0.008,-0.01286 -0.016,-0.02564 -0.0241,-0.03834 -0.0155,-0.02407 -0.031,-0.04815 -0.0465,-0.07224 -0.008,-0.01296 -0.0168,-0.02584 -0.0255,-0.03862 -0.0159,-0.0236 -0.0318,-0.04721 -0.0477,-0.07083 -0.009,-0.01304 -0.0177,-0.02599 -0.0268,-0.03884 -0.0163,-0.02313 -0.0326,-0.04627 -0.0489,-0.06941 -0.009,-0.0131 -0.0186,-0.0261 -0.0281,-0.039 -0.0167,-0.02265 -0.0334,-0.04531 -0.0502,-0.06798 -0.01,-0.01313 -0.0195,-0.02616 -0.0295,-0.03908 -0.0171,-0.02218 -0.0343,-0.04435 -0.0514,-0.06653 -0.0102,-0.01314 -0.0205,-0.02617 -0.0309,-0.03909 -0.0175,-0.02169 -0.0351,-0.04338 -0.0526,-0.06507 -0.0106,-0.01313 -0.0214,-0.02614 -0.0323,-0.03902 -0.018,-0.0212 -0.0359,-0.0424 -0.0539,-0.0636 -0.0111,-0.01309 -0.0223,-0.02604 -0.0337,-0.03887 -0.0184,-0.02071 -0.0368,-0.04142 -0.0552,-0.06212 -0.007,-0.0075 -0.0134,-0.01493 -0.0201,-0.02233 -0.0868,-0.09513 -0.19234,-0.205374 -0.31504,-0.319052 -0.26733,-0.247661 -0.60358,-0.500443 -1.01402,-0.698695 -0.34322,-0.166311 -0.72788,-0.287366 -1.13828,-0.339821 -0.4092,-0.05316 -0.80914,-0.03216 -1.17626,0.03786 -0.43156,0.08192 -0.81046,0.229421 -1.12443,0.387207 -0.37132,0.18689 -0.68802,0.405199 -0.95203,0.614106 -0.32253,0.255741 -0.60186,0.525207 -0.84438,0.784162 -0.31424,0.336115 -0.59147,0.681034 -0.83935,1.018655 -0.27489,0.374979 -0.52548,0.75703 -0.75577,1.141688 -0.14585,0.244104 -0.28936,0.498209 -0.4264,0.763756 -0.14988,0.290081 -0.27947,0.579829 -0.39303,0.861351 -0.18248,0.452703 -0.33123,0.901027 -0.45815,1.330538 -0.16146,0.547431 -0.29441,1.0885 -0.41071,1.611212 -0.18974,0.854201 -0.34474,1.707154 -0.49005,2.510047 -0.0898,0.495432 -0.17352,0.961793 -0.2655,1.425799 -0.001,0.0065 -0.003,0.01299 -0.004,0.01949 -0.0109,0.05747 -0.0295,0.134039 -0.0621,0.245129 -0.0533,0.181463 -0.11871,0.37453 -0.19668,0.591573 -0.1223,0.339231 -0.25763,0.684838 -0.4025,1.042016 -0.21854,0.537862 -0.44947,1.077199 -0.68811,1.620965 -0.34888,0.79417 -0.70978,1.586396 -1.07767,2.378049 -0.40207,0.8647 -0.81092,1.725054 -1.22532,2.580526 -0.1949,0.401977 -0.38826,0.797864 -0.58345,1.189787 -0.008,0.01618 -0.0159,0.03246 -0.0236,0.04883 0.0144,-0.03066 0.0441,-0.08889 0.0119,-0.02564 -0.0157,0.03077 -0.0668,0.131054 -0.11619,0.261202 -0.003,0.0081 -0.006,0.0162 -0.009,0.02432 -0.0824,0.225238 -0.12032,0.428394 -0.12801,0.466775 -0.001,0.0054 -0.002,0.01084 -0.003,0.01626 -0.032,0.1662 -0.0519,0.318053 -0.0647,0.420152 -0.0281,0.22819 -0.0481,0.443687 -0.0647,0.631109 -0.037,0.421706 -0.066,0.821366 -0.0974,1.200835 -0.0197,0.236019 -0.0383,0.447633 -0.0611,0.652054 -0.0127,0.112074 -0.0228,0.189012 -0.0335,0.252007 -0.007,0.04064 -0.003,0.0083 0.0128,-0.04781 0.004,-0.01454 0.008,-0.02904 0.0128,-0.04349 -0.009,0.02882 -4.5e-4,-0.0087 0.039,-0.109491 0.0375,-0.0958 0.11555,-0.273708 0.26157,-0.470052 0.0479,-0.0644 0.0993,-0.126164 0.15382,-0.185014 0.10333,-0.111434 0.19473,-0.18233 0.23507,-0.212354 0.003,-0.0021 0.006,-0.0041 0.008,-0.0062 0.19638,-0.144729 0.4062,-0.235373 0.60871,-0.28399 0.22178,-0.05373 0.40148,-0.0463 0.49804,-0.03615 0.1197,0.0127 0.17889,0.03428 0.1894,0.03788 0.0182,0.0063 -0.004,-0.001 -0.0578,-0.02895 -0.0914,-0.0479 -0.2033,-0.117054 -0.37296,-0.22986 -0.005,-0.0033 -0.01,-0.0066 -0.0149,-0.0098 -0.0766,-0.05008 -0.13951,-0.10314 -0.18915,-0.154984 -0.0683,-0.07109 -0.13477,-0.161284 -0.19453,-0.273682 -0.0697,-0.130875 -0.13335,-0.293594 -0.1869,-0.494313 -0.0619,-0.23228 -0.10546,-0.494252 -0.13323,-0.790522 -0.0331,-0.355913 -0.0409,-0.733418 -0.0315,-1.136636 0.0119,-0.493738 0.0494,-1.001129 0.10042,-1.527898 0.0775,-0.796172 0.18216,-1.593033 0.28572,-2.435612 0.0826,-0.672899 0.16459,-1.368528 0.22234,-2.077141 0.0439,-0.542751 0.075,-1.105447 0.0741,-1.682086 -0.001,-0.47319 -0.0233,-0.969887 -0.0881,-1.479759 -0.0577,-0.452125 -0.15095,-0.932387 -0.30715,-1.419661 -0.004,-0.01131 -0.007,-0.0226 -0.0112,-0.03385 -0.0151,-0.04455 -0.0286,-0.09043 -0.0405,-0.137504 -0.0393,-0.154291 -0.0739,-0.322402 -0.11186,-0.525048 -0.0584,-0.313945 -0.11017,-0.639909 -0.16073,-0.976755 -0.0843,-0.564313 -0.16062,-1.13605 -0.23483,-1.705085 -0.17779,-1.367286 -0.34338,-2.736342 -0.53241,-4.099221 -0.0889,-0.639352 -0.18179,-1.271682 -0.28777,-1.904705 -0.073,-0.434203 -0.15212,-0.870827 -0.24619,-1.310883 -0.063,-0.293036 -0.13498,-0.601073 -0.2256,-0.917112 -0.0677,-0.232907 -0.16292,-0.540933 -0.31096,-0.865638 -0.003,-0.0074 -0.007,-0.01486 -0.0103,-0.02226 -0.0607,-0.12938 -0.22406,-0.478202 -0.53031,-0.814601 -0.0175,-0.01919 -0.0353,-0.03807 -0.0534,-0.05663 -0.0572,-0.05855 -0.0908,-0.09187 -0.10346,-0.10506 -0.10109,-0.10414 -0.19538,-0.205797 -0.28895,-0.310317 -0.12876,-0.143838 -0.2573,-0.294374 -0.38752,-0.451666 -0.29328,-0.354664 -0.58116,-0.72733 -0.87348,-1.114491 -0.41407,-0.548907 -0.82737,-1.114842 -1.25311,-1.684957 -0.48588,-0.650714 -0.98744,-1.307748 -1.52282,-1.952086 -0.41391,-0.497825 -0.84978,-0.990509 -1.31874,-1.46459 -0.19776,-0.202674 -0.41252,-0.39505 -0.64484,-0.572272 -0.43515,-0.333413 -0.89216,-0.588634 -1.32494,-0.785014 -0.50931,-0.230881 -1.01506,-0.394729 -1.48711,-0.515829 -0.58316,-0.149235 -1.15272,-0.243179 -1.68748,-0.304501 -0.67353,-0.07686 -1.32826,-0.1061 -1.94832,-0.108276 -0.77677,-0.0024 -1.53076,0.03774 -2.24998,0.10236 -0.87166,0.07865 -1.71659,0.195477 -2.52789,0.337526 -0.74986,0.131584 -1.47652,0.285537 -2.18128,0.46095 -0.53362,0.133101 -1.0525,0.277652 -1.56124,0.439599 -0.36604,0.11686 -0.72807,0.242633 -1.0884,0.386497 -0.87926,0.351682 -1.68085,0.663115 -2.47408,0.947902 -0.91992,0.330316 -1.77278,0.603851 -2.59501,0.826663 -0.8001,0.21698 -1.54527,0.378526 -2.24375,0.495168 -0.80579,0.134779 -1.54651,0.209206 -2.21297,0.244375 a 2.2246696,2.2246696 90 0 0 0.23446,4.443158 z"
       id="path-1-3"
       inkscape:path-effect="#path-effect13;#path-effect14"
       inkscape:original-d="m 132.14537,17.797357 c 3.73476,-0.197617 6.92367,-1.345676 10.23348,-2.669604 3.02931,-1.211723 11.4167,-2.821186 14.23789,0 2.19227,2.192267 4.034,5.3688 5.78414,7.118943 0.93669,0.936686 1.59252,10.561695 2.22467,12.45815 1.34084,4.022525 -2.40818,12.187498 1.3348,14.682819 0.5088,0.339201 1.34734,0.877332 1.77974,0.444934 0.19803,-0.198034 0.27422,-3.218053 0.44493,-3.559471 0.80388,-1.607758 4.07472,-8.36036 4.44934,-10.23348 0.44152,-2.207606 0.82452,-5.208511 1.77974,-7.118943 0.56643,-1.132867 2.92259,-5.086222 4.89427,-3.114538 4.97905,4.979049 -4.10395,26.596492 -1.77974,28.920705 2.45602,2.456014 7.43127,1.533722 9.34362,-1.334802 3.02445,-4.536679 5.02294,-11.579114 5.78414,-16.907489 0.4987,-3.490892 0.59733,-8.313604 2.22467,-11.568281 1.3062,-2.612408 1.83128,-6.280618 4.0044,-8.453745 1.02115,-1.021143 1.91903,0.166357 2.66961,-1.334802"
       style="fill:#000000;fill-rule:nonzero;stroke:none;stroke-width:1px;stroke-linecap:butt;stroke-linejoin:miter;stroke-opacity:1" />
  </g>
</svg>
