<?xml version="1.0" encoding="UTF-8" standalone="no"?>
<!-- Created with Inkscape (http://www.inkscape.org/) -->

<svg
   width="120.00083mm"
   height="37.895mm"
   viewBox="0 0 120.00083 37.895"
   version="1.1"
   id="svg1"
   inkscape:version="1.3.2 (091e20e, 2023-11-25)"
   sodipodi:docname="firma.svg"
   xmlns:inkscape="http://www.inkscape.org/namespaces/inkscape"
   xmlns:sodipodi="http://sodipodi.sourceforge.net/DTD/sodipodi-0.dtd"
   xmlns="http://www.w3.org/2000/svg"
   xmlns:svg="http://www.w3.org/2000/svg">
  <sodipodi:namedview
     id="namedview1"
     pagecolor="#505050"
     bordercolor="#eeeeee"
     borderopacity="1"
     inkscape:showpageshadow="0"
     inkscape:pageopacity="0"
     inkscape:pagecheckerboard="0"
     inkscape:deskcolor="#505050"
     inkscape:document-units="mm"
     inkscape:zoom="0.87648185"
     inkscape:cx="375.93477"
     inkscape:cy="119.22666"
     inkscape:window-width="1280"
     inkscape:window-height="666"
     inkscape:window-x="0"
     inkscape:window-y="25"
     inkscape:window-maximized="0"
     inkscape:current-layer="layer1" />
  <defs
     id="defs1" />
  <g
     inkscape:label="Layer 1"
     inkscape:groupmode="layer"
     id="layer1">
    <path
       style="fill:#333333;stroke:#1a1a1a;stroke-width:0.0470579"
       id="path1"
       d="M 9.1279256,11.951818 C 27.570495,13.163145 3.180215,-7.9569295 3.1095866,11.787231 c -0.312318,7.875271 15.4083204,6.898861 5.5962153,2.457818 -14.0378206,5.457266 2.7320531,21.358936 11.8364071,12.21238 8.491829,2.343167 19.545203,-18.4835311 9.523262,-12.7402 -0.840197,5.249961 2.732337,26.479273 -5.105433,16.936889 2.628689,-17.687521 24.34012,5.680849 21.37345,-12.681683 -13.989721,-5.648753 17.302605,13.64102 3.806605,3.729693 -8.057503,-1.881593 -4.464688,-6.849544 -3.604698,-0.07996 -5.118363,8.282751 -20.678843,-7.311208 -20.873973,9.338283 4.028757,9.598256 8.373984,-6.937509 4.484906,-11.352053 5.713987,-15.3999777 2.104941,8.443598 -7.825117,5.94211 C 11.957763,33.306559 -4.7575268,16.650458 9.6210413,16.387262 -6.6044449,18.385512 14.829206,-4.8931185 18.013475,8.6450401 16.934301,13.642336 11.919864,9.5890653 9.1279256,11.951821 Z" />
    <path
       style="fill:#333333;stroke:#1a1a1a;stroke-width:0.0470579"
       id="path2"
       d="M 98.244147,2.5775246 C 90.0749,7.1200013 77.041425,4.8313398 70.970476,8.261226 68.24891,16.9039 68.445275,30.027304 61.225315,35.252799 c -7.750646,-6.48284 7.633373,-17.539772 14.776994,-11.550774 2.520448,3.130857 12.513079,5.713139 11.250413,-0.100693 -9.549965,-0.687675 1.989571,12.60277 7.638207,7.313844 4.286552,-4.934387 14.154881,-16.204651 16.334521,-3.407483 1.58678,3.564785 9.58447,3.259458 2.87002,1.568195 -1.98158,-5.970072 -7.54534,-14.783259 -12.79554,-5.487378 -1.981039,7.704552 -17.862568,11.14455 -15.99921,0.727077 5.399,1.625908 -5.091505,4.211349 -6.730273,0.259048 -6.568403,-6.897309 -19.878151,-2.546703 -20.23554,7.16274 7.681874,7.673539 10.071278,-9.221853 10.927285,-14.836057 C 68.489744,5.7626968 80.393297,7.1495007 87.811481,5.5718107 91.232195,4.3895778 94.705543,3.3457689 98.244147,2.5775246 Z" />
  </g>
</svg>
